# xmcd CD database file
#
# Track frame offsets:
#	150
#	19350
#	53176
#	101628
#	129605
#	155557
#	187133
#	205436
#	261612
#
# Disc length: 4543 seconds
#
# Revision: 0
# Processed by: cddbd v1.5.1PL2 Copyright (c) Steve Scherf et al.
# Submitted via: CDex 1.51
#
DISCID=8e11bd09
DTITLE=Frank Klare - Berlin Nightlife
DYEAR=2004
DGENRE=New Age
TTITLE0=Matrix - Out Of Time
TTITLE1=WMF: Morphing Energy
TTITLE2=Tempodrom: Berlin Bells
TTITLE3=Icon: Evolution
TTITLE4=Kit Kat Club: Metallic Men
TTITLE5=Oxymoron: Moogie Boogie
TTITLE6=SO36: Twilight Scene
TTITLE7=Sky Club: Ambience
TTITLE8=Dorian Gray: Sissi D's Inspired Piece
EXTD=YEAR: 2004
EXTT0=
EXTT1=
EXTT2=
EXTT3=
EXTT4=
EXTT5=
EXTT6=
EXTT7=
EXTT8=
PLAYORDER=
